<svg width="493" height="440" viewBox="0 0 493 440" fill="none" xmlns="http://www.w3.org/2000/svg">
<path d="M253.484 3.48285C247.616 0.822851 241.091 0.522849 236.943 1.13285C233.055 1.70285 227.437 3.12285 222.705 6.67285C219.766 8.88285 217.577 11.6329 216.201 14.8429C214.575 18.6529 214.075 23.1428 214.721 28.1929C214.815 28.9529 215.221 29.6229 215.857 30.0828C216.493 30.5428 217.285 30.7429 218.077 30.6229L228.261 29.1329C229.699 28.9229 230.773 27.7128 230.752 26.3228C230.72 23.1928 231.794 17.7528 239.392 16.5128C245.188 15.5729 248.221 19.2529 249.253 20.8829C250.941 23.5329 251.16 26.9329 249.836 29.9829C247.804 34.6628 242.926 36.0529 240.195 36.4529C237.058 36.9229 234.89 39.7429 235.369 42.7329L237.037 53.2429C237.277 54.7829 238.777 55.8329 240.383 55.6029L250.305 54.1529C251.911 53.9229 253.005 52.4829 252.765 50.9429L252.411 48.7329C252.4 48.6829 252.432 48.6329 252.484 48.6029C254.61 47.5229 258.675 45.0529 262.011 40.7329C266.263 35.2229 267.827 28.6828 266.649 21.2928C264.992 10.7528 258.571 5.79285 253.484 3.48285Z" fill="#0F110C"/>
<path d="M246.272 57.4728L245.406 57.6028C241.258 58.2128 238.392 61.9428 239.028 65.9228C239.663 69.9028 243.551 72.6528 247.7 72.0428L248.565 71.9128C252.713 71.3028 255.579 67.5728 254.944 63.5928C254.308 59.6128 250.42 56.8728 246.272 57.4728Z" fill="#0F110C"/>
<path d="M49.0661 173.223C46.1163 169.683 41.9575 167.493 39.0495 166.613C36.3186 165.793 32.1702 164.993 27.8967 165.863C25.2388 166.403 22.8936 167.533 20.9236 169.213C18.5889 171.203 16.7648 173.983 15.514 177.483C15.3264 178.003 15.3681 178.573 15.6287 179.063C15.8893 179.563 16.3375 179.933 16.9003 180.093L24.0506 182.243C25.0616 182.543 26.1665 182.083 26.6147 181.173C27.6361 179.113 30.1481 175.893 35.5369 177.423C39.6331 178.583 40.394 181.923 40.5295 183.303C40.7484 185.553 39.7582 187.843 37.8821 189.423C34.9949 191.863 31.3468 191.263 29.4289 190.693C27.2192 190.033 24.8636 191.213 24.1757 193.313L21.7575 200.693C21.4031 201.773 22.0285 202.923 23.1542 203.263L30.1168 205.363C31.2425 205.703 32.4412 205.103 32.7956 204.023L33.3063 202.473C33.3167 202.433 33.348 202.413 33.3897 202.413C35.1408 202.353 38.6221 201.993 42.2389 200.193C46.8564 197.893 50.0563 194.103 51.7552 188.913C54.163 181.513 51.6197 176.293 49.0661 173.223Z" fill="#0F110C"/>
<path d="M26.3541 206.293L25.7495 206.113C22.8311 205.233 19.725 206.793 18.8077 209.593C17.8905 212.393 19.5165 215.373 22.435 216.253L23.0395 216.433C25.958 217.313 29.0641 215.753 29.9813 212.953C30.8986 210.153 29.2725 207.173 26.3541 206.293Z" fill="#0F110C"/>
<path d="M357.987 412.823C383.356 411.763 415.533 403.993 435.212 388.113C408.049 388.783 380.584 397.573 357.987 412.823Z" fill="#0F110C"/>
<path d="M375.633 384.043C401.003 382.983 433.179 375.213 452.858 359.333C425.695 360.003 398.23 368.793 375.633 384.043Z" fill="#0F110C"/>
<path d="M394.603 356.623C419.973 355.563 452.149 347.793 471.828 331.913C444.676 332.583 417.2 341.373 394.603 356.623Z" fill="#0F110C"/>
<path d="M415.772 328.343C441.007 324.313 472.109 312.873 489.568 294.943C462.489 298.803 436.243 310.683 415.772 328.343Z" fill="#0F110C"/>
<path d="M434.388 307.473C456.798 295.173 481.761 274.183 491.058 252.023C466.825 264.813 446.666 284.533 434.388 307.473Z" fill="#0F110C"/>
<path d="M425.362 317.333C432.262 293.193 434.409 260.733 424.278 237.713C416.419 263.433 416.804 291.753 425.362 317.333Z" fill="#0F110C"/>
<path d="M407.413 340.403C412.301 314.793 411.436 280.893 398.657 257.733C392.914 285.053 396.031 314.463 407.413 340.403Z" fill="#0F110C"/>
<path d="M386.025 368.703C390.913 343.093 390.048 309.193 377.269 286.033C371.526 313.353 374.643 342.763 386.025 368.703Z" fill="#0F110C"/>
<path d="M363.219 404.553C368.108 378.943 367.242 345.043 354.464 321.883C348.72 349.203 351.837 378.613 363.219 404.553Z" fill="#0F110C"/>
<path d="M354.526 417.793C350.847 424.303 347.97 429.623 346.063 433.333C345.135 435.133 344.405 436.563 343.874 437.613C343.655 438.063 343.478 438.433 343.321 438.733C343.207 438.993 343.154 439.123 343.165 439.133C343.175 439.143 343.259 439.023 343.405 438.783C343.571 438.493 343.78 438.133 344.04 437.703C344.614 436.673 345.395 435.273 346.386 433.503C348.387 429.843 351.357 424.573 355.11 418.113C358.841 411.643 363.448 404.023 368.691 395.633C373.976 387.273 379.948 378.173 386.452 368.773C399.491 349.993 412.249 333.613 421.776 321.993C426.539 316.173 430.448 311.513 433.179 308.313C434.492 306.753 435.535 305.513 436.295 304.603C436.619 304.213 436.879 303.883 437.088 303.623C437.265 303.403 437.348 303.283 437.338 303.273C437.327 303.263 437.213 303.363 437.015 303.563C436.785 303.813 436.493 304.113 436.15 304.483C435.347 305.363 434.263 306.563 432.887 308.083C430.062 311.213 426.07 315.823 421.234 321.583C411.561 333.113 398.699 349.453 385.639 368.263" fill="#0F110C"/>
<path d="M310.749 249.433C320.005 227.503 325.831 197.093 319.15 174.003C308.81 197.303 305.819 224.133 310.749 249.433Z" fill="#0F110C"/>
<path d="M291.362 222.863C300.618 200.933 306.444 170.523 299.753 147.433C289.413 170.723 286.432 197.553 291.362 222.863Z" fill="#0F110C"/>
<path d="M273.757 195.723C283.013 173.793 288.84 143.383 282.148 120.293C271.819 143.583 268.838 170.413 273.757 195.723Z" fill="#0F110C"/>
<path d="M256.257 166.363C262.719 143.343 264.731 112.363 255.267 90.333C247.898 114.853 248.252 141.903 256.257 166.363Z" fill="#0F110C"/>
<path d="M244.541 142.173C242.248 118.213 232.993 88.5829 216.336 71.7629C218.338 97.4729 228.375 122.513 244.541 142.173Z" fill="#0F110C"/>
<path d="M249.993 153.803C230.543 138.213 201.515 123.303 176.228 122.603C196.741 139.633 222.986 150.733 249.993 153.803Z" fill="#0F110C"/>
<path d="M263.991 178.323C242.384 163.843 210.812 150.913 184.327 152.393C207.175 168.283 235.515 177.503 263.991 178.323Z" fill="#0F110C"/>
<path d="M281.429 207.873C259.822 193.393 228.25 180.463 201.765 181.943C224.602 197.833 252.942 207.053 281.429 207.873Z" fill="#0F110C"/>
<path d="M305.235 241.663C283.628 227.183 252.056 214.253 225.571 215.733C248.419 231.623 276.759 240.843 305.235 241.663Z" fill="#0F110C"/>
<path d="M313.928 254.363C318.441 260.103 322.173 264.693 324.831 267.803C326.123 269.313 327.134 270.503 327.885 271.383C328.208 271.753 328.479 272.053 328.698 272.303C328.885 272.503 328.989 272.603 329 272.593C329.01 272.583 328.937 272.463 328.771 272.243C328.573 271.983 328.333 271.663 328.031 271.273C327.311 270.373 326.342 269.143 325.112 267.593C322.548 264.413 318.9 259.773 314.46 253.993C309.999 248.223 304.839 241.243 299.231 233.413C293.666 225.563 287.693 216.833 281.658 207.523C269.619 188.893 259.686 171.473 252.828 158.703C249.388 152.323 246.668 147.123 244.833 143.513C243.926 141.773 243.207 140.383 242.676 139.373C242.446 138.943 242.248 138.593 242.092 138.303C241.956 138.063 241.883 137.943 241.863 137.953C241.852 137.963 241.894 138.093 242.009 138.343C242.144 138.643 242.311 139.003 242.509 139.453C242.999 140.483 243.666 141.893 244.51 143.663C246.251 147.323 248.888 152.563 252.244 158.993C258.967 171.843 268.817 189.343 280.876 207.993" fill="#0F110C"/>
<path d="M487.348 163.583C483.074 158.713 477.154 155.763 473.027 154.633C469.17 153.573 463.312 152.593 457.34 153.963C453.629 154.813 450.377 156.473 447.667 158.893C444.457 161.763 442.007 165.733 440.36 170.693C440.11 171.433 440.194 172.223 440.579 172.913C440.965 173.603 441.611 174.103 442.403 174.323L452.524 177.103C453.952 177.493 455.484 176.813 456.089 175.513C457.444 172.593 460.863 167.983 468.482 169.943C474.288 171.443 475.465 176.103 475.705 178.033C476.091 181.183 474.788 184.433 472.203 186.723C468.232 190.243 463.083 189.533 460.373 188.793C457.246 187.943 453.983 189.673 453.097 192.653L449.971 203.103C449.512 204.633 450.44 206.223 452.024 206.663L461.884 209.373C463.479 209.813 465.136 208.923 465.595 207.403L466.251 205.203C466.272 205.153 466.314 205.113 466.377 205.113C468.836 204.973 473.714 204.353 478.718 201.703C485.117 198.323 489.474 192.883 491.673 185.543C494.8 175.043 491.048 167.803 487.348 163.583Z" fill="#0F110C"/>
<path d="M456.652 210.793L455.787 210.553C451.659 209.423 447.344 211.713 446.156 215.673C444.978 219.633 447.365 223.773 451.492 224.913L452.357 225.153C456.485 226.283 460.8 223.993 461.988 220.033C463.166 216.063 460.779 211.923 456.652 210.793Z" fill="#0F110C"/>
<path d="M153.308 249.093C148.388 245.563 142.405 244.103 138.434 243.913C134.723 243.733 129.231 244.033 124.144 246.473C120.986 247.983 118.411 250.143 116.504 252.873C114.242 256.113 112.897 260.183 112.501 264.983C112.439 265.703 112.689 266.403 113.179 266.943C113.679 267.493 114.367 267.813 115.128 267.843L124.863 268.313C126.239 268.383 127.469 267.453 127.73 266.163C128.313 263.253 130.387 258.413 137.684 258.643C143.239 258.823 145.324 262.783 145.97 264.483C147.012 267.243 146.543 270.433 144.719 273.023C141.915 276.993 137.11 277.393 134.505 277.273C131.503 277.143 128.939 279.363 128.782 282.223L128.251 292.273C128.178 293.743 129.356 294.993 130.888 295.073L140.373 295.533C141.905 295.603 143.208 294.473 143.291 293.003L143.406 290.893C143.406 290.843 143.448 290.803 143.5 290.783C145.689 290.163 149.941 288.613 153.881 285.223C158.905 280.883 161.646 275.103 162.022 268.043C162.543 257.923 157.571 252.153 153.308 249.093Z" fill="#0F110C"/>
<path d="M135.974 297.843L135.14 297.803C131.169 297.613 127.782 300.553 127.584 304.363C127.386 308.173 130.45 311.423 134.421 311.613L135.255 311.653C139.226 311.843 142.614 308.903 142.812 305.093C143.01 301.283 139.945 298.033 135.974 297.843Z" fill="#0F110C"/>
<path d="M102.683 427.123H111.688C116.994 409.003 119.537 388.843 116.066 371.983C107.936 388.883 103.381 407.913 102.683 427.123Z" fill="#0F110C"/>
<path d="M100.973 343.033C89.9039 366.053 85.4324 393.023 88.3613 419.003C88.4655 419.203 88.5593 419.413 88.6636 419.613C98.6802 397.663 105.914 367.003 100.973 343.033Z" fill="#0F110C"/>
<path d="M77.2191 310.643C69.0995 334.373 67.5986 360.903 72.8935 385.623C73.2166 386.373 73.5502 387.143 73.8941 387.913C81.2112 364.733 84.7967 333.543 77.2191 310.643Z" fill="#0F110C"/>
<path d="M61.7302 359.193C61.6468 358.933 61.6051 358.793 61.6155 358.783C61.6259 358.773 61.6989 358.903 61.8135 359.153C61.949 359.463 62.1054 359.833 62.3034 360.283C62.4598 360.663 62.6474 361.123 62.8454 361.603C63.1998 362.153 63.5438 362.723 63.919 363.263C63.179 338.503 56.1642 307.493 41.3425 289.223C41.6865 314.703 49.1182 339.983 62.2722 360.703C62.2305 360.593 62.1784 360.463 62.1471 360.353C61.9699 359.893 61.8344 359.503 61.7302 359.193Z" fill="#0F110C"/>
<path d="M67.9424 375.453C67.8695 375.263 67.7965 375.083 67.7131 374.893C50.1606 357.933 23.8422 341.273 0.160889 339.073C18.5264 357.703 42.6247 370.623 67.9424 375.453Z" fill="#0F110C"/>
<path d="M80.2313 401.593C80.1375 401.513 80.0333 401.433 79.9395 401.353C79.9707 401.423 80.002 401.503 80.0437 401.573C80.0958 401.573 80.1688 401.583 80.2313 401.593Z" fill="#0F110C"/>
<path d="M6.0708 370.183C26.5418 387.633 52.4641 398.713 79.0848 401.463C78.8971 401.043 78.7095 400.633 78.5219 400.223C58.9056 384.573 30.6172 370.243 6.0708 370.183Z" fill="#0F110C"/>
<path d="M20.8613 401.593C34.2655 413.023 50.0148 421.703 66.7752 427.123H87.3713C68.2448 413.333 43.0313 401.643 20.8613 401.593Z" fill="#0F110C"/>
<path d="M70.2147 381.023C72.539 386.653 75.3324 393.143 78.5323 400.223C78.72 400.633 78.9076 401.043 79.0952 401.463C82.712 409.423 86.85 418.093 91.4257 427.123H92.4264C91.1339 424.593 89.8831 422.093 88.6636 419.623C88.5594 419.423 88.4656 419.213 88.3613 419.013C85.3699 412.933 82.5869 407.083 80.0333 401.573C80.002 401.503 79.9603 401.423 79.929 401.353C77.7298 396.583 75.7077 392.083 73.8836 387.913C73.5397 387.143 73.2061 386.373 72.883 385.623C72.1534 383.943 71.455 382.313 70.788 380.763C67.9112 373.993 65.6285 368.493 64.0963 364.673C63.6064 363.483 63.1999 362.483 62.8351 361.613C62.6371 361.133 62.4495 360.673 62.2931 360.293C62.0951 359.843 61.9387 359.463 61.8032 359.163C61.6886 358.913 61.626 358.783 61.6052 358.793C61.5948 358.803 61.626 358.933 61.7198 359.203C61.8345 359.513 61.9596 359.903 62.1263 360.373C62.168 360.483 62.2097 360.613 62.2514 360.723C62.6371 361.773 63.1374 363.133 63.7628 364.823C64.7321 367.453 66.0663 370.863 67.7027 374.913C67.7757 375.093 67.8486 375.283 67.932 375.473C68.6512 377.203 69.4017 379.053 70.2147 381.023Z" fill="#0F110C"/>
<path d="M472.995 426.733C472.995 426.883 370.14 427.003 243.301 427.003C116.41 427.003 13.5754 426.883 13.5754 426.733C13.5754 426.583 116.41 426.463 243.301 426.463C370.14 426.453 472.995 426.583 472.995 426.733Z" fill="#263238"/>
<path d="M43.667 71.0627H50.046C50.046 71.0627 50.046 65.9227 55.6119 65.8327C58.4991 65.7827 60 67.6027 60.6046 68.9927C61.3134 70.6127 61.0945 72.4527 60.146 73.9527C59.062 75.6627 56.6959 77.2227 52.3912 76.4927V85.4727H58.6972V82.2127C58.6972 82.2127 67.5464 80.0227 67.5464 70.6727C67.5464 61.7227 59.187 59.6427 55.6015 59.6427C52.8706 59.6327 43.5419 60.2727 43.667 71.0627Z" fill="#4680FF"/>
<path d="M58.7807 87.8027H52.3809V93.5327H58.7807V87.8027Z" fill="#4680FF"/>
<path d="M90.6963 106.722C90.6963 109.442 88.4032 111.642 85.5681 111.642C82.733 111.642 80.4399 109.442 80.4399 106.722C80.4399 104.002 82.733 101.802 85.5681 101.802C88.4032 101.802 90.6963 104.002 90.6963 106.722Z" fill="#0F110C"/>
<path d="M90.6963 106.723C90.6546 106.723 90.665 106.283 90.4565 105.543C90.2481 104.813 89.7269 103.753 88.5804 102.933C87.4755 102.113 85.6515 101.653 83.89 102.283C83.0248 102.583 82.2014 103.153 81.6073 103.933C81.0028 104.703 80.6692 105.693 80.6588 106.723C80.6692 107.743 81.0028 108.733 81.6073 109.513C82.191 110.293 83.0248 110.863 83.89 111.163C85.6515 111.793 87.4755 111.333 88.5804 110.513C89.7269 109.693 90.2481 108.633 90.4565 107.903C90.665 107.163 90.6546 106.723 90.6963 106.723C90.7067 106.723 90.7171 106.833 90.7171 107.043C90.7275 107.253 90.6963 107.563 90.6129 107.943C90.4461 108.703 89.9458 109.843 88.7576 110.743C87.611 111.643 85.6619 112.173 83.7545 111.513C82.8164 111.193 81.9096 110.593 81.2738 109.743C80.6171 108.903 80.2419 107.833 80.2314 106.723C80.2419 105.613 80.6171 104.533 81.2738 103.703C81.92 102.853 82.8164 102.253 83.7545 101.933C85.6619 101.273 87.611 101.803 88.7576 102.703C89.9458 103.603 90.4461 104.743 90.6129 105.503C90.6963 105.893 90.7275 106.203 90.7171 106.403C90.7171 106.613 90.7067 106.723 90.6963 106.723Z" fill="#0F110C"/>
<path d="M416.19 50.7829H422.892C422.892 50.7829 422.892 45.3829 428.739 45.2829C431.772 45.2329 433.346 47.143 433.992 48.603C434.732 50.303 434.514 52.233 433.513 53.813C432.377 55.6129 429.886 57.2429 425.372 56.4829V65.923H432.002V62.493C432.002 62.493 441.299 60.1829 441.299 50.3629C441.299 40.9629 432.512 38.7729 428.75 38.7729C425.862 38.7729 416.065 39.4429 416.19 50.7829Z" fill="#4680FF"/>
<path d="M432.074 68.373H425.352V74.403H432.074V68.373Z" fill="#4680FF"/>
<path d="M395.917 85.753C395.917 88.603 393.509 90.923 390.528 90.923C387.557 90.923 385.139 88.613 385.139 85.753C385.139 82.903 387.547 80.583 390.528 80.583C393.498 80.583 395.917 82.893 395.917 85.753Z" fill="#0F110C"/>
<path d="M395.917 85.753C395.864 85.753 395.885 85.293 395.666 84.513C395.448 83.743 394.895 82.623 393.696 81.763C392.529 80.903 390.622 80.423 388.766 81.083C387.859 81.403 386.984 81.993 386.369 82.823C385.733 83.633 385.379 84.673 385.368 85.753C385.379 86.833 385.733 87.873 386.369 88.683C386.984 89.503 387.859 90.103 388.766 90.423C390.622 91.083 392.529 90.603 393.696 89.743C394.895 88.883 395.448 87.763 395.666 86.993C395.885 86.213 395.864 85.753 395.917 85.753C395.927 85.753 395.937 85.863 395.948 86.083C395.958 86.303 395.927 86.623 395.833 87.033C395.656 87.833 395.135 89.033 393.884 89.983C392.675 90.933 390.632 91.493 388.62 90.793C387.63 90.463 386.682 89.823 386.015 88.933C385.327 88.053 384.931 86.923 384.92 85.753C384.931 84.583 385.327 83.453 386.015 82.573C386.692 81.683 387.63 81.043 388.62 80.713C390.632 80.023 392.675 80.583 393.884 81.523C395.135 82.463 395.656 83.663 395.833 84.473C395.927 84.883 395.948 85.203 395.948 85.423C395.937 85.633 395.927 85.753 395.917 85.753Z" fill="#0F110C"/>
<path d="M199.837 334.313C188.59 307.273 180.147 288.493 180.147 288.493L77.2816 303.493C77.2816 303.493 58.791 348.973 60.3961 369.603C62.0013 390.233 69.5268 426.573 69.5268 426.573H194.01C193.989 426.573 211.083 361.353 199.837 334.313Z" fill="#263238"/>
<path d="M162.709 108.793C163.512 100.993 164.732 93.1428 167.713 85.8428C170.683 78.5428 175.561 71.7628 182.451 67.5428L184.223 69.1228C185.442 65.7728 188.694 63.1828 192.353 62.6428C196.011 62.1028 199.92 63.6428 202.13 66.4928C206.08 65.4728 210.604 67.0228 212.991 70.2028C215.378 73.3828 215.461 77.9928 213.199 81.2628C216.899 81.7128 220.162 84.5028 221.048 87.9728C221.934 91.4428 220.391 95.3728 217.337 97.4128C221.413 100.793 223.039 106.643 221.246 111.513C219.463 116.393 214.387 119.983 208.999 120.173C210.197 124.663 207.758 129.803 203.443 131.873C199.128 133.953 193.374 132.753 190.341 129.153C190.716 133.823 186.829 138.243 182.086 139.353C177.344 140.463 172.174 138.623 168.724 135.323C165.263 132.023 163.366 127.443 162.626 122.813C161.886 118.173 162.23 113.453 162.709 108.793Z" fill="#263238"/>
<path d="M184.598 74.2227C189.33 75.6927 190.299 79.3727 191.279 82.4327C193.395 89.0227 191.019 98.7827 187.172 104.613C183.326 110.443 179.105 113.403 171.996 114.393C171.767 103.923 171.538 93.4627 171.298 82.9927L184.598 74.2227Z" fill="#FF725E"/>
<path d="M187.266 92.2528C190.498 88.2228 190.039 81.9028 186.255 78.3428C188.33 75.8428 187.579 71.9928 185.474 69.5228C183.368 67.0528 180.241 65.6328 177.219 64.2928C175.561 56.9928 167.014 51.8528 159.437 53.6028C155.486 48.0328 147.085 47.1628 140.352 49.0428C138.705 49.5028 137.058 50.0928 135.349 50.0928C134.088 50.0828 132.868 49.7628 131.617 49.5928C124.769 48.7128 117.963 53.3328 115.295 59.4528C114.867 60.4328 114.513 61.4628 113.836 62.3028C112.95 63.4028 111.595 64.0528 110.448 64.9028C107.967 66.7428 106.383 69.6628 106.258 72.6628C106.143 75.2128 106.998 77.9228 105.872 80.2428C105.309 81.4028 104.298 82.3428 103.861 83.5528C102.589 87.0628 106.644 90.6428 105.893 94.2828C105.737 95.0228 105.393 95.7128 105.174 96.4428C104.736 97.9328 104.882 99.5728 105.58 100.973C106.122 102.053 106.998 103.033 107.071 104.233C107.123 105.143 106.706 106.003 106.519 106.893C106.06 109.063 110.948 117.453 112.897 118.633L171.402 119.133C175.832 118.263 179.439 114.413 179.866 110.103C179.939 109.383 179.949 108.603 180.408 108.043C180.804 107.563 181.44 107.333 182.003 107.043C185.765 105.103 186.224 100.143 185.828 96.0528C185.776 95.4828 185.713 94.8928 185.859 94.3428C186.109 93.5428 186.735 92.9128 187.266 92.2528Z" fill="#263238"/>
<path d="M170.506 92.3329C170.683 82.4029 164.19 70.9829 153.902 66.1229C147.419 63.0629 142.364 63.0429 138.955 62.6629C131.315 61.8129 125.155 65.4429 125.155 65.4429C121.934 66.1729 110.115 76.5529 109.5 87.8129C108.822 100.333 108.499 115.633 110.146 124.953C113.46 143.683 128.48 145.923 128.48 145.923C128.48 145.893 127.083 177.063 127.083 177.063L155.945 199.753L164.763 162.493L170.506 92.3329Z" fill="#FFBF9D"/>
<path d="M128.48 145.913C128.48 145.913 141.738 146.593 154.684 138.943C154.684 138.943 147.857 152.243 128.261 150.683L128.48 145.913Z" fill="#FF9A6C"/>
<path d="M167.556 110.143C167.546 108.743 169.193 105.433 170.631 105.203C174.467 104.593 181.388 104.813 181.565 114.173C181.794 126.963 168.703 124.113 168.328 124.183C166.201 124.603 167.598 114.973 167.556 110.143Z" fill="#FFBF9D"/>
<path d="M171.913 119.453C171.976 119.413 172.153 119.603 172.538 119.773C172.924 119.933 173.581 120.043 174.279 119.783C175.676 119.263 176.822 117.103 176.854 114.793C176.864 113.623 176.593 112.523 176.145 111.613C175.718 110.683 175.082 110.043 174.363 109.933C173.654 109.783 173.164 110.203 173.008 110.563C172.83 110.923 172.924 111.183 172.851 111.203C172.809 111.233 172.559 110.993 172.664 110.463C172.716 110.203 172.862 109.903 173.174 109.653C173.487 109.403 173.956 109.263 174.456 109.303C175.488 109.353 176.426 110.243 176.916 111.243C177.469 112.243 177.802 113.483 177.781 114.793C177.74 117.373 176.416 119.803 174.488 120.373C173.55 120.623 172.768 120.363 172.361 120.073C171.944 119.763 171.871 119.473 171.913 119.453Z" fill="#FF9A6C"/>
<path d="M106.633 85.9127C107.061 81.2627 108.989 76.8627 111.324 72.7727C112.939 69.9427 114.805 67.1827 117.348 65.0627C119.475 63.3027 122.007 62.0527 124.551 60.8927C131.232 57.8527 138.684 55.2727 145.897 56.8327C149.764 57.6727 153.256 59.6427 156.643 61.6227C159.239 63.1427 161.855 64.6927 164.033 66.7327C165.941 68.5227 167.483 70.6427 168.828 72.8527C172.059 78.1127 174.331 83.9927 174.769 90.0827C175.207 96.1727 180.012 101.553 176.291 106.503C175.999 106.883 169.38 108.203 168.922 108.373C167.848 108.783 166.66 107.663 166.67 106.553C166.681 105.443 167.473 104.483 168.338 103.733C166.691 103.683 165.555 101.913 165.659 100.333C165.764 98.7527 166.743 97.3627 167.723 96.0827C167.848 95.9127 167.984 95.7427 168.015 95.5327C168.088 94.9927 167.452 94.6627 166.962 94.3827C164.586 93.0327 164.325 89.2827 166.483 87.6427C163.304 86.9327 161.24 83.2627 162.376 80.3327C162.553 79.8727 162.803 79.3427 162.564 78.9027C162.345 78.4727 161.792 78.3427 161.313 78.2127C157.79 77.2127 155.424 73.3927 156.195 69.9527C154.34 70.0427 152.464 70.1327 150.661 69.7127C148.857 69.2927 147.117 68.2827 146.293 66.6927C145.115 68.7327 142.791 70.1227 140.362 70.2527C137.934 70.3827 135.474 69.2327 134.077 67.3227C130.971 67.6027 127.792 67.1327 124.926 65.9627C124.217 68.7427 121.934 71.0927 119.11 71.9727C118.557 72.1427 117.932 72.3127 117.661 72.8027C117.494 73.1127 117.515 73.4927 117.536 73.8427C117.63 75.6327 116.368 76.3927 115.337 77.8827C114.315 79.3727 112.522 81.6027 110.73 81.1027C110.928 84.1427 109.229 86.3627 106.56 88.0027L106.633 85.9127Z" fill="#263238"/>
<path d="M103.871 83.5628C103.871 83.5628 103.996 83.0328 104.58 82.1828C104.861 81.7528 105.257 81.2528 105.622 80.6128C105.987 79.9728 106.268 79.1628 106.352 78.2128C106.446 77.2728 106.362 76.2028 106.268 75.0528C106.175 73.8928 106.07 72.6128 106.341 71.2528C106.592 69.9028 107.154 68.5028 108.061 67.2028C108.509 66.5528 109.051 65.9428 109.687 65.3728C110.313 64.8028 111.042 64.3328 111.782 63.8528C112.512 63.3728 113.252 62.8528 113.794 62.1628C114.336 61.4628 114.68 60.6128 115.034 59.7428C115.753 57.9928 116.817 56.2828 118.224 54.7728C119.631 53.2628 121.34 51.8928 123.352 50.9128C124.342 50.3928 125.437 50.0428 126.552 49.7328C127.688 49.4928 128.855 49.2928 130.054 49.3228C130.648 49.3128 131.253 49.3928 131.847 49.4428C132.441 49.5228 133.035 49.6428 133.619 49.7428C134.796 49.9528 135.995 49.9828 137.183 49.7128C138.372 49.4728 139.539 49.0528 140.769 48.7528C141.988 48.4228 143.26 48.2228 144.542 48.0828C145.824 47.9428 147.137 47.9428 148.451 48.0128C149.764 48.1028 151.077 48.3328 152.37 48.6728C154.924 49.4028 157.415 50.7528 159.124 52.8628C159.291 53.0728 159.458 53.2828 159.624 53.4928L159.416 53.4128C163.439 52.4828 167.661 53.4928 170.913 55.5428C174.196 57.5828 176.635 60.7528 177.427 64.2428L177.323 64.1128C178.938 64.8328 180.544 65.5528 182.024 66.4428C183.493 67.3228 184.848 68.3828 185.87 69.6828C186.881 70.9928 187.496 72.5328 187.642 74.0828C187.798 75.6328 187.392 77.2328 186.401 78.4228L186.391 78.2128C188.309 80.0328 189.289 82.4528 189.518 84.7528C189.747 87.0628 189.257 89.3228 188.184 91.1228C187.944 91.5828 187.61 91.9928 187.308 92.3928C186.985 92.7828 186.662 93.1528 186.401 93.5428C186.141 93.9328 185.974 94.3628 185.943 94.8028C185.901 95.2428 185.953 95.6928 185.995 96.1328C186.151 97.8928 186.12 99.5328 185.891 100.993C185.661 102.443 185.234 103.723 184.609 104.703C184.004 105.693 183.233 106.373 182.555 106.793C181.867 107.233 181.263 107.413 180.929 107.643C180.585 107.863 180.46 108.043 180.45 108.033C180.45 108.033 180.554 107.843 180.898 107.603C181.231 107.343 181.836 107.153 182.503 106.703C183.17 106.273 183.91 105.593 184.484 104.623C185.078 103.653 185.484 102.393 185.703 100.963C185.911 99.5228 185.932 97.9028 185.755 96.1528C185.713 95.7128 185.651 95.2628 185.693 94.7828C185.724 94.3028 185.911 93.8328 186.182 93.4128C186.453 92.9928 186.787 92.6228 187.1 92.2328C187.392 91.8328 187.704 91.4428 187.944 90.9828C188.976 89.2228 189.445 87.0228 189.205 84.7728C188.976 82.5328 188.007 80.1728 186.151 78.4328L186.047 78.3328L186.141 78.2228C187.068 77.1128 187.444 75.6028 187.287 74.1128C187.141 72.6228 186.547 71.1428 185.568 69.8928C184.588 68.6428 183.264 67.6128 181.815 66.7428C180.366 65.8728 178.772 65.1628 177.156 64.4428L177.073 64.4028L177.052 64.3128C176.281 60.9228 173.904 57.8428 170.694 55.8528C167.515 53.8528 163.398 52.8828 159.499 53.7728L159.374 53.8028L159.291 53.6928C159.134 53.4928 158.968 53.2928 158.811 53.0928C157.175 51.0528 154.757 49.7328 152.266 49.0228C151.004 48.6828 149.722 48.4728 148.43 48.3728C147.137 48.3028 145.855 48.3028 144.594 48.4328C143.333 48.5728 142.082 48.7628 140.884 49.0928C139.675 49.3928 138.497 49.8128 137.267 50.0528C136.652 50.1728 136.026 50.2528 135.401 50.2528C134.776 50.2528 134.161 50.1728 133.556 50.0728C132.962 49.9728 132.368 49.8628 131.784 49.7728C131.201 49.7228 130.617 49.6428 130.033 49.6528C128.866 49.6228 127.73 49.8128 126.625 50.0428C125.541 50.3428 124.467 50.6828 123.498 51.1928C121.517 52.1428 119.839 53.4828 118.453 54.9628C117.056 56.4428 116.014 58.1228 115.295 59.8328C114.93 60.6928 114.586 61.5728 114.002 62.3128C113.419 63.0528 112.647 63.5828 111.918 64.0628C111.178 64.5428 110.459 65.0028 109.844 65.5528C109.229 66.0928 108.697 66.6928 108.249 67.3228C107.352 68.5828 106.8 69.9528 106.539 71.2728C106.268 72.5928 106.352 73.8628 106.435 75.0228C106.519 76.1828 106.602 77.2528 106.487 78.2128C106.404 79.1728 106.091 80.0028 105.706 80.6528C105.32 81.2928 104.913 81.7828 104.622 82.2028C104.33 82.6128 104.132 82.9528 104.017 83.1828C103.934 83.4428 103.882 83.5728 103.871 83.5628Z" fill="#455A64"/>
<path d="M153.172 50.8429C153.152 50.8729 152.818 50.6529 152.172 50.3529C151.526 50.0629 150.535 49.6929 149.253 49.5629C147.982 49.4229 146.418 49.5429 144.876 50.2129C143.343 50.8729 141.863 52.0829 140.915 53.7129C140.644 54.1829 140.414 54.6829 140.269 55.1629C140.133 55.6429 140.112 56.1629 140.373 56.5129L140.706 56.9429L140.164 56.8029C138.684 56.4129 137.162 56.6929 136.047 57.3029C134.911 57.9129 134.192 58.8529 133.806 59.6829C133.41 60.5329 133.316 61.2829 133.306 61.7929C133.296 62.3029 133.337 62.5829 133.306 62.5929C133.296 62.5929 133.275 62.5229 133.243 62.3929C133.212 62.2629 133.181 62.0629 133.17 61.7929C133.15 61.2729 133.202 60.4829 133.577 59.5829C133.952 58.6929 134.682 57.6829 135.88 57.0129C137.058 56.3429 138.674 56.0229 140.269 56.4329L140.06 56.7229C139.685 56.2229 139.737 55.5829 139.883 55.0529C140.039 54.5129 140.279 54.0129 140.571 53.5129C141.561 51.8029 143.125 50.5529 144.73 49.8829C146.356 49.2029 147.992 49.1129 149.295 49.2929C150.608 49.4629 151.609 49.8829 152.245 50.2229C152.568 50.3929 152.808 50.5429 152.954 50.6629C153.099 50.7729 153.183 50.8329 153.172 50.8429Z" fill="#455A64"/>
<path d="M174.926 65.3728C174.946 65.3928 174.79 65.5628 174.467 65.8328C174.144 66.1028 173.654 66.4828 172.966 66.8528C172.278 67.2128 171.382 67.5728 170.308 67.6428C169.255 67.7128 167.994 67.4928 166.994 66.7028L167.285 66.6528C167.16 66.8228 167.025 67.0028 166.9 67.1828C166.754 67.3528 166.597 67.5228 166.452 67.6928C165.482 68.6728 164.294 69.3528 163.137 69.7028C161.98 70.0728 160.875 70.1728 159.958 70.1128C159.041 70.0528 158.332 69.8428 157.852 69.6728C157.383 69.4728 157.144 69.3428 157.154 69.3228C157.185 69.2428 158.186 69.7828 159.968 69.8428C160.854 69.8728 161.907 69.7428 163.012 69.3728C164.106 69.0128 165.232 68.3628 166.16 67.4328C166.306 67.2728 166.452 67.1128 166.587 66.9528C166.712 66.7828 166.837 66.6128 166.952 66.4528L167.077 66.2728L167.244 66.4028C168.14 67.1128 169.297 67.3428 170.287 67.2928C171.288 67.2528 172.163 66.9428 172.841 66.6228C174.196 65.9528 174.884 65.3128 174.926 65.3728Z" fill="#455A64"/>
<path d="M182.076 77.1828C182.086 77.1828 182.076 77.2628 182.044 77.4228C182.003 77.5728 181.919 77.7928 181.753 78.0428C181.429 78.5428 180.7 79.1628 179.616 79.4328C178.521 79.7128 177.156 79.5128 175.801 79.0628C175.123 78.8328 174.415 78.6028 173.685 78.2828C172.976 77.9628 172.215 77.4928 171.83 76.6828C171.798 76.6128 171.767 76.5428 171.746 76.4728L172.059 76.5628C170.787 77.5328 169.464 78.3828 168.119 78.8728C166.785 79.3828 165.44 79.4728 164.377 79.2728C163.304 79.0828 162.511 78.6628 162.063 78.2828C161.834 78.1028 161.667 77.9328 161.573 77.8128C161.48 77.6928 161.427 77.6228 161.438 77.6228C161.469 77.6028 161.678 77.8428 162.147 78.1728C162.616 78.5028 163.387 78.8728 164.408 79.0128C165.43 79.1628 166.691 79.0528 167.973 78.5528C169.255 78.0628 170.527 77.2328 171.798 76.2728L172.007 76.1128L172.111 76.3628C172.132 76.4128 172.153 76.4728 172.184 76.5328C172.497 77.1928 173.174 77.6328 173.841 77.9428C174.519 78.2528 175.238 78.4928 175.905 78.7228C177.229 79.1828 178.511 79.3928 179.532 79.1628C180.564 78.9428 181.263 78.4028 181.607 77.9528C181.982 77.5028 182.034 77.1728 182.076 77.1828Z" fill="#455A64"/>
<path d="M139.018 103.163C138.934 104.413 139.956 105.513 141.311 105.623C142.666 105.733 143.833 104.813 143.927 103.573C144.01 102.323 142.989 101.223 141.634 101.113C140.279 100.993 139.101 101.913 139.018 103.163Z" fill="#263238"/>
<path d="M115.118 102.533C115.034 103.783 116.056 104.883 117.411 104.993C118.766 105.103 119.933 104.183 120.027 102.943C120.11 101.693 119.089 100.593 117.734 100.483C116.379 100.363 115.201 101.283 115.118 102.533Z" fill="#263238"/>
<path d="M114.148 94.6827C114.44 95.0027 116.358 93.7327 119.005 93.8227C121.653 93.8727 123.56 95.2427 123.863 94.9427C124.009 94.8127 123.717 94.2427 122.893 93.6227C122.08 93.0027 120.673 92.3927 119.016 92.3427C117.359 92.3027 115.951 92.8427 115.138 93.4127C114.294 93.9927 114.002 94.5427 114.148 94.6827Z" fill="#263238"/>
<path d="M140.529 95.9528C140.863 96.2428 142.624 94.7928 145.272 94.6128C147.919 94.4028 149.952 95.5729 150.223 95.2429C150.348 95.0929 150.004 94.5629 149.107 94.0228C148.232 93.4928 146.773 93.0128 145.115 93.1328C143.468 93.2528 142.124 93.9328 141.363 94.5828C140.612 95.2528 140.373 95.8228 140.529 95.9528Z" fill="#263238"/>
<path d="M130.638 115.063C130.659 114.923 129.012 114.593 126.354 114.183C125.676 114.093 125.04 113.943 124.947 113.503C124.801 113.033 125.113 112.333 125.468 111.593C126.156 110.043 126.875 108.413 127.636 106.703C130.659 99.7427 132.868 94.0027 132.566 93.8927C132.274 93.7827 129.585 99.3327 126.573 106.293C125.843 108.013 125.145 109.643 124.488 111.213C124.207 111.943 123.738 112.773 124.05 113.753C124.217 114.243 124.707 114.613 125.134 114.743C125.562 114.883 125.947 114.903 126.281 114.933C128.949 115.143 130.617 115.213 130.638 115.063Z" fill="#263238"/>
<path d="M134.744 118.853C135.734 118.983 136.735 119.483 137.308 120.283C137.892 121.083 138.309 122.953 137.736 123.673C137.246 124.293 135.057 124.293 133.546 124.113C132.847 124.033 132.264 123.563 132.034 122.923L131.44 121.283C131.096 120.343 131.607 119.293 132.597 119.003C133.264 118.793 134.004 118.753 134.744 118.853Z" fill="#FF9A6C"/>
<path d="M139.32 86.6629C139.716 87.2929 142.249 86.4829 145.376 86.2729C148.503 85.9929 151.14 86.3928 151.421 85.7028C151.546 85.3728 150.984 84.8228 149.858 84.3428C148.732 83.8728 147.033 83.5429 145.157 83.6829C143.281 83.8329 141.655 84.4229 140.633 85.0729C139.602 85.7129 139.153 86.3528 139.32 86.6629Z" fill="#263238"/>
<path d="M114.795 90.5027C115.347 91.0627 117.452 90.4127 119.996 90.3227C122.539 90.1527 124.707 90.5927 125.186 89.9727C125.395 89.6727 125.04 89.1027 124.082 88.5827C123.133 88.0627 121.57 87.6527 119.829 87.7427C118.078 87.8327 116.577 88.3927 115.712 89.0127C114.826 89.6227 114.555 90.2227 114.795 90.5027Z" fill="#263238"/>
<path d="M206.247 196.233L181.211 283.363L189.997 308.333C156.935 322.313 109.145 326.753 71.4656 309.243C71.4656 309.243 84.2652 273.223 84.6925 266.203C85.1303 259.193 81.9825 218.223 85.4638 204.483C88.9451 190.743 98.9201 161.303 98.9201 161.303L128.251 156.833C141.697 163.763 150.306 164.793 164.763 156.763L192.082 162.483L206.247 196.233Z" fill="#455A64"/>
<path d="M99.3578 161.263C99.3578 161.263 83.6085 162.863 77.2712 175.293C71.0069 187.573 53.6211 241.903 52.6726 250.983C51.7241 260.063 59.406 272.283 66.0976 273.963L86.3914 254.553L103.225 255.993L125.395 156.773L99.3578 161.263Z" fill="#455A64"/>
<g opacity="0.3">
<path d="M87.4754 194.633C82.5765 206.823 81.1902 220.283 83.5146 233.153C79.8144 231.833 76.1246 230.503 72.4244 229.183C75.4471 233.183 79.4183 236.523 83.9419 238.873C80.9505 238.043 77.8861 237.203 74.78 237.403C71.6739 237.593 68.4636 239.033 67.0669 241.703C70.6941 241.063 74.3839 240.433 78.0424 240.843C81.701 241.253 85.3907 242.873 87.3607 245.863C84.6299 234.543 83.5771 222.853 84.2442 211.253" fill="black"/>
</g>
<g opacity="0.3">
<path d="M82.8685 269.363L165.513 277.223C159.551 277.103 154.976 281.943 149.816 284.803C140.269 290.103 128.376 288.623 117.473 286.973C108.447 285.613 99.4099 284.243 90.3835 282.883C88.1009 282.543 85.6723 282.123 83.9942 280.613C80.9923 277.893 81.8157 273.193 82.8685 269.363Z" fill="black"/>
</g>
<path d="M145.991 262.843L159.833 250.023C161.177 248.783 163.012 248.163 164.878 248.323C168.828 248.683 175.52 249.343 176.895 249.863C178.876 250.603 180.742 251.653 181.294 252.603C181.846 253.553 183.712 259.253 183.827 260.093C183.879 260.503 183.754 261.683 183.608 262.793C183.431 264.103 181.93 264.873 180.742 264.223C180.2 263.933 179.71 263.543 179.439 263.043C178.563 261.463 178.667 260.823 178.667 260.823C178.667 260.823 179.105 266.523 174.269 266.623C174.269 266.623 176.499 271.473 170.266 273.483C170.266 273.483 170.496 276.643 165.284 277.073C160.073 277.493 155.351 277.073 155.351 277.073C155.351 277.073 145.835 283.633 139.122 284.053C132.41 284.473 117.4 281.663 117.4 281.663L115.587 255.123L145.991 262.843Z" fill="#FFBF9D"/>
<path d="M164.742 254.713C164.721 254.763 165.566 255.103 166.962 255.603C168.348 256.103 170.287 256.763 172.476 257.323C173.56 257.623 174.654 257.783 175.572 258.023C176.499 258.263 177.052 258.923 177.458 259.503C177.865 260.093 178.177 260.593 178.459 260.893C178.73 261.203 178.928 261.333 178.938 261.313C178.959 261.293 178.803 261.133 178.574 260.803C178.334 260.483 178.063 259.973 177.677 259.363C177.479 259.053 177.25 258.723 176.927 258.413C176.604 258.103 176.166 257.853 175.676 257.703C174.707 257.433 173.664 257.263 172.57 256.963C170.391 256.403 168.453 255.783 167.046 255.343C165.638 254.923 164.752 254.663 164.742 254.713Z" fill="#FF9A6C"/>
<path d="M162.96 262.843C162.939 262.893 163.533 263.153 164.502 263.523C165.472 263.893 166.827 264.383 168.338 264.863C169.849 265.353 171.236 265.743 172.247 266.003C173.258 266.263 173.894 266.393 173.904 266.343C173.914 266.293 173.31 266.083 172.32 265.763C171.194 265.403 169.891 264.983 168.453 264.523C167.014 264.063 165.711 263.643 164.586 263.283C163.596 262.973 162.981 262.803 162.96 262.843Z" fill="#FF9A6C"/>
<path d="M159.541 270.413C159.531 270.523 161.949 270.763 164.826 271.513C167.713 272.253 169.933 273.213 169.975 273.113C169.995 273.073 169.464 272.773 168.567 272.393C167.661 272.003 166.389 271.543 164.93 271.163C163.471 270.783 162.126 270.573 161.146 270.463C160.156 270.363 159.541 270.363 159.541 270.413Z" fill="#FF9A6C"/>
<path d="M127.49 283.363L66.0977 273.963C66.0977 273.963 73.4772 244.423 84.2339 244.423C85.8078 244.423 140.342 261.423 140.342 261.423L127.49 283.363Z" fill="#455A64"/>
<path d="M138.226 270.493C138.267 270.523 138.799 270.033 139.664 269.233C140.612 268.343 141.759 267.263 143.02 266.073C144.323 264.833 145.491 263.683 146.304 262.833C147.117 261.983 147.596 261.423 147.554 261.393C147.513 261.363 146.981 261.853 146.116 262.653C145.167 263.543 144.021 264.623 142.76 265.813C141.457 267.053 140.3 268.203 139.476 269.053C138.663 269.913 138.194 270.463 138.226 270.493Z" fill="#FF9A6C"/>
<path d="M140.342 261.413C140.331 261.443 140.06 261.393 139.56 261.273C138.955 261.123 138.236 260.933 137.371 260.713C135.349 260.153 132.649 259.413 129.376 258.503C122.633 256.603 113.335 253.923 103.079 250.913C97.3983 249.233 92.02 247.643 87.2462 246.223L87.1211 246.183L87.0273 246.063C85.1512 243.633 82.3682 242.153 79.8771 241.423C77.3338 240.683 74.9573 240.593 73.0291 240.753C71.1008 240.903 69.6103 241.313 68.6097 241.603C67.609 241.913 67.0879 242.133 67.067 242.093C67.0462 242.053 67.5361 241.763 68.5159 241.373C69.5061 241.003 70.9966 240.523 72.977 240.303C74.9365 240.063 77.3964 240.093 80.0543 240.813C82.6913 241.553 85.5785 242.973 87.684 245.643L87.4651 245.483C92.2493 246.873 97.6381 248.443 103.319 250.093C113.575 253.103 122.841 255.873 129.533 257.923C132.774 258.933 135.443 259.763 137.454 260.383C138.299 260.663 139.007 260.903 139.591 261.093C140.102 261.283 140.352 261.383 140.342 261.413Z" fill="#263238"/>
<path d="M124.081 166.983C124.592 165.343 127.479 150.213 128.647 146.693C130.304 141.723 143.75 132.853 143.75 132.853C143.75 132.853 141.644 128.193 135.912 130.613C129.136 133.483 125.78 138.313 124.071 137.323C122.361 136.343 111.719 125.943 108.811 126.273C105.914 126.603 105.268 129.463 106.299 130.603C107.321 131.753 108.478 133.643 108.478 133.643C108.478 133.643 102.328 131.873 103.527 138.323C103.527 138.323 96.5225 134.133 97.2105 142.983C97.2105 142.983 92.6034 141.183 91.5715 144.293C90.5501 147.403 93.5832 151.013 95.1258 153.463C96.658 155.923 101.651 170.173 101.651 170.173L101.713 182.743L126.197 177.913L124.081 166.983Z" fill="#FFBF9D"/>
<path d="M124.081 166.983C124.102 166.983 124.165 167.233 124.279 167.703C124.394 168.233 124.55 168.923 124.738 169.813C125.134 171.713 125.687 174.423 126.395 177.883L126.437 178.073L126.239 178.113C120.194 179.333 111.834 181.033 101.786 183.063L101.38 183.143V182.743C101.349 178.873 101.317 174.643 101.286 170.173L101.307 170.283C99.5557 165.453 97.7421 160.253 95.4595 154.993C94.3442 152.463 92.0198 150.263 91.186 147.193C90.9775 146.433 90.8837 145.613 91.0192 144.793C91.1443 144.003 91.5404 143.103 92.3429 142.603C93.1351 142.103 94.0628 141.993 94.907 142.053C95.7617 142.113 96.5747 142.293 97.3877 142.583L96.7936 143.003C96.7623 142.143 96.7206 141.263 96.8562 140.353C97.0229 139.473 97.2314 138.483 98.0235 137.743C98.7949 136.963 100.004 136.793 100.984 136.963C101.995 137.123 102.902 137.463 103.777 137.963L103.11 138.393C102.943 137.203 102.735 135.763 103.569 134.453C104.09 133.633 105.059 133.163 105.956 133.043C106.873 132.913 107.748 133.003 108.624 133.223L108.113 133.843C107.498 132.863 106.842 131.873 106.112 131.003C105.643 130.553 105.393 129.763 105.424 129.123C105.455 128.463 105.695 127.823 106.091 127.283C106.487 126.743 107.05 126.333 107.675 126.103C107.988 125.993 108.311 125.903 108.634 125.863C108.947 125.823 109.385 125.863 109.697 125.953C110.959 126.343 111.918 127.023 112.887 127.673C116.702 130.353 119.975 133.423 123.279 136.193C123.675 136.503 124.154 136.943 124.446 137.013C124.738 137.103 125.238 136.883 125.655 136.643C126.531 136.123 127.365 135.453 128.198 134.833C129.866 133.563 131.596 132.373 133.41 131.393C135.213 130.483 137.11 129.473 139.247 129.553C141.394 129.593 143.239 130.963 144.094 132.693L144.219 132.943L143.969 133.113C138.726 136.683 134.015 140.203 130.69 143.993C129.856 144.943 129.21 145.953 128.845 147.023C128.501 148.123 128.24 149.223 127.98 150.273C127.5 152.373 127.052 154.313 126.656 156.053C125.885 159.503 125.28 162.223 124.853 164.143C124.634 165.073 124.467 165.783 124.332 166.253C124.186 166.743 124.081 166.983 124.081 166.983C124.06 166.983 124.123 166.733 124.217 166.253C124.321 165.723 124.457 165.013 124.634 164.123C125.019 162.193 125.551 159.463 126.239 155.993C126.614 154.233 127.031 152.293 127.479 150.183C127.719 149.123 127.969 148.023 128.313 146.893C128.688 145.733 129.387 144.643 130.221 143.673C133.598 139.763 138.288 136.213 143.552 132.573L143.427 132.993C142.676 131.513 141.05 130.313 139.216 130.293C137.371 130.213 135.557 131.153 133.796 132.063C132.034 133.023 130.366 134.183 128.709 135.463C127.865 136.093 127.052 136.763 126.083 137.343C125.593 137.593 125.04 137.963 124.238 137.803C123.487 137.533 123.206 137.153 122.737 136.813C119.401 134.023 116.128 130.973 112.387 128.363C111.459 127.733 110.469 127.083 109.458 126.773C109.208 126.723 109.03 126.683 108.77 126.713C108.509 126.743 108.249 126.823 108.009 126.903C107.529 127.083 107.102 127.393 106.81 127.803C106.216 128.593 106.07 129.793 106.789 130.493C107.582 131.433 108.238 132.413 108.874 133.443L109.426 134.333L108.363 134.063C106.935 133.693 105.059 133.733 104.309 134.933C103.683 135.853 103.808 137.163 103.975 138.263L104.111 139.143L103.308 138.693C102.558 138.273 101.682 137.943 100.848 137.813C100.004 137.673 99.1597 137.813 98.6385 138.353C97.5545 139.473 97.5858 141.373 97.6587 142.953L97.69 143.593L97.0646 143.373C95.6888 142.893 93.9585 142.603 92.8433 143.303C92.2908 143.643 91.999 144.263 91.8739 144.943C91.7592 145.613 91.8322 146.323 92.0198 147.003C92.3951 148.373 93.1455 149.653 93.9377 150.883C94.7194 152.103 95.6575 153.313 96.2308 154.693C98.5239 160.023 100.306 165.203 102.036 170.063L102.057 170.123V170.183C102.068 174.643 102.068 178.883 102.078 182.753L101.672 182.433C111.74 180.503 120.121 178.893 126.176 177.733L126.02 177.963C125.395 174.473 124.894 171.743 124.55 169.823C124.404 168.933 124.279 168.233 124.196 167.713C124.092 167.223 124.06 166.983 124.081 166.983Z" fill="#FF9A6C"/>
<path d="M108.499 133.803C108.436 133.883 109.812 135.013 111.469 136.463C113.127 137.903 114.43 139.123 114.513 139.053C114.586 138.993 113.387 137.653 111.72 136.203C110.052 134.743 108.561 133.723 108.499 133.803Z" fill="#FF9A6C"/>
<path d="M103.027 137.963C102.943 138.003 103.464 139.273 104.538 140.583C105.601 141.903 106.758 142.713 106.81 142.633C106.883 142.553 105.862 141.653 104.83 140.363C103.788 139.093 103.121 137.923 103.027 137.963Z" fill="#FF9A6C"/>
<path d="M97.3044 142.653C97.2211 142.713 97.7943 143.613 98.5865 144.663C99.3786 145.723 100.087 146.523 100.171 146.473C100.254 146.413 99.6809 145.513 98.8888 144.463C98.0966 143.403 97.3878 142.593 97.3044 142.653Z" fill="#FF9A6C"/>
<path d="M192.072 162.483L165.743 187.683L138.736 220.243L127.99 176.853L100.546 182.263C100.546 182.263 102.485 231.273 110.928 253.483C112.533 257.713 117.286 260.853 119.412 261.823C132.681 267.873 145.637 258.513 145.637 258.513C145.637 258.513 200.994 222.863 206.997 199.003C209.833 187.733 208.696 174.333 203.871 168.823C199.618 163.983 192.072 162.483 192.072 162.483Z" fill="#455A64"/>
<path d="M206.997 199.013C206.997 199.013 206.935 199.273 206.789 199.783C206.612 200.283 206.476 201.063 206.049 202.013C205.35 203.963 203.923 206.703 201.702 209.983C199.472 213.263 196.397 217.053 192.488 221.163C188.569 225.253 183.868 229.703 178.407 234.343C172.966 238.993 166.785 243.853 159.968 248.843C156.56 251.333 152.995 253.863 149.264 256.393C148.326 257.023 147.388 257.653 146.429 258.283C145.491 258.903 144.5 259.563 143.479 260.113C141.425 261.233 139.226 262.173 136.902 262.863C132.295 264.293 127.083 264.583 122.195 263.133C121.569 262.993 120.996 262.703 120.402 262.493C119.808 262.263 119.203 262.053 118.641 261.733C117.504 261.133 116.452 260.403 115.441 259.613C113.46 258.013 111.657 256.053 110.688 253.633C108.937 248.863 107.675 243.873 106.571 238.783C105.56 233.673 104.632 228.473 103.923 223.183C101.984 209.063 100.89 195.303 100.265 182.283L100.254 182.073L100.473 182.033C110.052 180.153 119.235 178.343 127.928 176.633L128.157 176.583L128.209 176.803C132.264 193.283 135.88 207.953 138.893 220.203L138.58 220.123C147.846 210.553 155.288 202.873 160.427 197.573C162.991 194.943 164.982 192.903 166.337 191.513C167.004 190.833 167.515 190.313 167.879 189.953C168.223 189.603 168.411 189.433 168.411 189.433C168.411 189.433 168.244 189.623 167.911 189.983C167.567 190.353 167.066 190.883 166.41 191.573C165.065 192.983 163.106 195.043 160.573 197.693C155.465 203.023 148.065 210.733 138.851 220.353L138.611 220.603L138.528 220.273C135.484 208.033 131.826 193.373 127.729 176.903L128.011 177.073C119.318 178.793 110.146 180.603 100.567 182.503L100.775 182.243C101.411 195.253 102.516 209.003 104.444 223.093C105.143 228.383 106.07 233.563 107.081 238.663C108.186 243.733 109.437 248.713 111.167 253.433C112.084 255.733 113.825 257.643 115.753 259.203C116.733 259.973 117.765 260.693 118.859 261.273C119.391 261.573 119.996 261.773 120.569 262.003C121.153 262.203 121.715 262.493 122.32 262.633C127.094 264.053 132.191 263.783 136.725 262.383C139.007 261.703 141.175 260.783 143.208 259.683C144.229 259.133 145.157 258.513 146.126 257.873C147.075 257.243 148.023 256.613 148.951 255.993C152.682 253.473 156.247 250.963 159.656 248.473C166.472 243.503 172.664 238.673 178.115 234.043C183.587 229.433 188.298 225.013 192.228 220.943C196.147 216.863 199.232 213.103 201.483 209.853C203.714 206.593 205.173 203.883 205.903 201.953C206.351 201.013 206.497 200.243 206.695 199.743C206.893 199.273 206.997 199.013 206.997 199.013Z" fill="#263238"/>
<path d="M143.729 240.173C143.635 240.153 143.958 238.903 144.125 236.843C144.229 235.813 144.208 234.583 144.136 233.233C144.021 231.873 143.781 230.393 143.375 228.873C142.562 225.823 141.196 223.263 140.102 221.493C138.987 219.733 138.153 218.713 138.226 218.663C138.257 218.643 138.486 218.873 138.882 219.323C139.289 219.763 139.81 220.443 140.425 221.303C141.624 223.043 143.072 225.633 143.906 228.743C144.323 230.293 144.542 231.813 144.636 233.203C144.688 234.593 144.657 235.843 144.511 236.883C144.375 237.923 144.208 238.753 144.042 239.313C143.865 239.873 143.76 240.183 143.729 240.173Z" fill="#263238"/>
<path d="M139.977 122.153C139.925 122.293 139.362 122.233 138.497 122.063C137.632 121.903 136.464 121.643 135.182 121.553C133.89 121.453 132.733 121.543 131.941 121.743C131.128 121.923 130.784 122.243 130.648 122.193C130.586 122.163 130.586 121.993 130.752 121.763C130.909 121.533 131.232 121.273 131.659 121.063C132.524 120.633 133.858 120.413 135.266 120.523C136.683 120.633 137.903 121.023 138.726 121.373C139.56 121.713 140.029 122.013 139.977 122.153Z" fill="#263238"/>
<g opacity="0.3">
<path d="M181.805 282.803C181.805 282.803 169.755 281.383 163.272 280.423C159.728 279.893 154.329 279.353 153.308 278.403C152.036 277.223 152.047 275.253 151.911 273.563C149.608 244.713 159.947 213.513 191.905 194.903L200.055 196.963L199.524 215.753L181.805 282.803Z" fill="black"/>
</g>
<path d="M370.171 57.9827C374.257 58.3327 378.374 55.3627 379.146 51.4927C379.917 47.6227 377.249 43.4027 373.319 42.2727C375.789 39.7227 376.321 35.6127 374.58 32.5627C372.829 29.5027 368.941 27.7327 365.366 28.3627C365.126 24.9327 362.906 21.6827 359.717 20.1127C356.527 18.5427 352.483 18.7127 349.44 20.5327C345.395 17.3627 339.006 17.3927 334.993 20.5927C331.501 20.0527 327.749 21.9227 326.186 24.9727C324.633 28.0227 325.393 32.0127 327.978 34.3327" fill="#263238"/>
<path d="M333.388 28.5627L335.233 28.5227C353.755 28.1127 369.494 41.4027 371.422 59.0827C373.204 75.5227 374.955 93.7127 375.06 102.553C375.268 120.853 356.267 124.123 356.267 124.123L358.414 146.073L312.093 145.733L306.058 66.1027C303.88 47.1327 313.574 30.1227 333.388 28.5627Z" fill="#FFBF9D"/>
<path d="M356.277 124.123C356.277 124.123 342.977 125.073 329.979 117.643C329.979 117.643 337.724 130.983 356.715 128.913L356.277 124.123Z" fill="#FF9A6C"/>
<path d="M365.585 78.9426C365.668 80.3226 364.522 81.5226 363.021 81.6426C361.52 81.7526 360.238 80.7326 360.154 79.3526C360.071 77.9726 361.218 76.7626 362.708 76.6526C364.219 76.5326 365.501 77.5626 365.585 78.9426Z" fill="#263238"/>
<path d="M367.534 68.1225C367.201 68.4725 365.106 67.0525 362.177 67.1225C359.248 67.1525 357.132 68.6525 356.809 68.3125C356.652 68.1625 356.975 67.5425 357.893 66.8625C358.8 66.1925 360.353 65.5225 362.187 65.4925C364.011 65.4625 365.564 66.0725 366.461 66.7125C367.378 67.3625 367.69 67.9725 367.534 68.1225Z" fill="#263238"/>
<path d="M340.35 78.9426C340.434 80.3226 339.287 81.5226 337.786 81.6326C336.285 81.7426 335.003 80.7226 334.92 79.3426C334.837 77.9626 335.983 76.7626 337.484 76.6426C338.985 76.5326 340.267 77.5626 340.35 78.9426Z" fill="#263238"/>
<path d="M338.735 69.2927C338.401 69.6427 336.306 68.2227 333.378 68.2927C330.449 68.3227 328.333 69.8227 328.01 69.4827C327.853 69.3327 328.176 68.7127 329.104 68.0327C330.011 67.3627 331.564 66.6927 333.388 66.6627C335.212 66.6327 336.765 67.2427 337.661 67.8827C338.579 68.5327 338.902 69.1427 338.735 69.2927Z" fill="#263238"/>
<path d="M349.877 89.9127C349.856 89.7527 351.67 89.4127 354.62 88.9827C355.37 88.8927 356.069 88.7327 356.183 88.2427C356.35 87.7227 356.016 86.9527 355.631 86.1227C354.88 84.4027 354.109 82.5927 353.286 80.7027C350.023 72.9827 347.647 66.6327 347.97 66.5127C348.293 66.3927 351.201 72.5427 354.463 80.2627C355.245 82.1627 356.006 83.9827 356.715 85.7127C357.017 86.5227 357.528 87.4327 357.173 88.5227C356.986 89.0627 356.444 89.4627 355.964 89.6027C355.485 89.7527 355.068 89.7727 354.693 89.8027C351.733 90.0127 349.898 90.0727 349.877 89.9127Z" fill="#263238"/>
<path d="M339.36 63.4927C338.996 64.2127 336.463 63.4927 333.367 63.4727C330.271 63.3827 327.686 63.9927 327.384 63.2627C327.249 62.9127 327.791 62.2627 328.885 61.6627C329.98 61.0627 331.647 60.5927 333.503 60.6227C335.358 60.6627 336.984 61.2027 338.016 61.8427C339.048 62.4727 339.517 63.1427 339.36 63.4927Z" fill="#263238"/>
<path d="M367.388 56.5326C366.784 57.1826 364.355 56.5726 361.447 56.6126C358.539 56.5626 356.09 57.1626 355.506 56.5026C355.245 56.1826 355.621 55.5326 356.684 54.9026C357.726 54.2726 359.488 53.7426 361.489 53.7526C363.49 53.7626 365.231 54.3026 366.263 54.9326C367.305 55.5626 367.659 56.2126 367.388 56.5326Z" fill="#263238"/>
<path d="M369.379 50.7326C369.379 50.7326 364.074 39.3826 358.247 36.8426C351.201 33.7626 348.377 41.1726 341.685 39.5326C334.993 37.9026 328.27 34.9426 321.6 40.0226C314.303 45.5826 317.868 49.2926 317.607 57.4126C316.544 90.3726 310.509 99.8126 308.352 84.3526C308.112 82.6626 303.171 81.4126 302.265 74.2626C301.097 64.9826 300.451 53.6826 302.452 47.0326C304.141 41.4226 307.351 37.5026 313.188 33.1326C322.392 26.2326 335.243 25.8026 343.999 26.4426C352.744 27.1026 369.827 36.3726 369.379 50.7326Z" fill="#263238"/>
<path d="M309.55 83.8326C309.363 81.0126 306.767 78.8426 303.849 79.1726C300.305 79.5726 296.386 81.6026 296.792 88.6526C297.512 101.153 310.447 97.8826 310.447 97.5226C310.447 97.2726 309.894 89.0626 309.55 83.8326Z" fill="#FFBF9D"/>
<path d="M307.34 92.9625C307.278 92.9225 307.122 93.1225 306.746 93.3125C306.382 93.4925 305.746 93.6425 305.047 93.4325C303.64 93.0225 302.358 90.9825 302.171 88.7325C302.077 87.5925 302.254 86.5025 302.629 85.5825C302.973 84.6425 303.557 83.9725 304.234 83.8225C304.912 83.6325 305.433 84.0025 305.61 84.3525C305.808 84.6925 305.735 84.9425 305.808 84.9625C305.85 84.9925 306.079 84.7425 305.944 84.2225C305.871 83.9725 305.704 83.6925 305.381 83.4625C305.058 83.2325 304.589 83.1325 304.109 83.2125C303.109 83.3325 302.254 84.2625 301.847 85.2725C301.389 86.2925 301.149 87.5225 301.264 88.8025C301.493 91.3125 302.973 93.6025 304.881 94.0225C305.808 94.2025 306.559 93.9025 306.934 93.5825C307.33 93.2725 307.382 92.9825 307.34 92.9625Z" fill="#FF9A6C"/>
<path d="M309.217 59.5927C310.937 60.6627 312.75 61.7627 314.804 61.9127C316.847 62.0627 319.15 60.8827 319.452 58.9327C319.588 58.0627 319.338 57.0527 319.921 56.3627C320.609 55.5427 321.933 55.7627 323.027 55.8527C326.832 56.1527 331.157 52.0327 332.043 48.4727C333.044 49.8427 335.17 50.2127 336.609 49.2727C338.047 48.3327 338.568 47.8027 339.684 46.5227C340.799 45.2427 342.373 44.0827 344.103 44.2727C345.072 44.3827 345.99 44.9127 346.948 44.8127C348.658 44.6327 349.45 42.6827 349.669 41.0527C349.888 39.4127 350.044 37.5127 351.472 36.5927C352.796 35.7427 354.547 36.1727 356.131 36.3627C357.716 36.5527 359.738 36.1527 360.102 34.6627C360.3 33.8827 359.925 33.0727 359.467 32.4027C357.361 29.3827 352.9 28.1227 349.419 29.5627C348.043 25.4527 343.936 22.3327 339.454 21.9827C334.972 21.6327 330.397 24.0727 328.333 27.9127C325.519 25.5727 321.495 24.6627 317.878 25.5327C314.272 26.4127 311.176 29.0527 309.863 32.3927C306.674 31.6627 303.088 32.9227 301.139 35.4527C299.19 37.9827 298.992 41.6427 300.659 44.3527C298.345 45.6927 296.396 47.9727 296.407 50.5627C296.417 53.1527 299.117 55.6727 301.702 54.9327C300.701 56.9727 301.618 59.6927 303.682 60.7727C305.746 61.8527 308.623 61.1327 309.873 59.2127" fill="#263238"/>
<path d="M350.482 33.2326C350.492 33.2326 350.492 33.3126 350.482 33.4626C350.472 33.6126 350.461 33.8426 350.419 34.1326C350.315 34.7126 350.096 35.5726 349.533 36.5626C348.971 37.5426 348.085 38.6726 346.719 39.5826C345.375 40.5026 343.53 41.2226 341.414 41.1626L341.633 40.8826C342.06 41.9426 341.987 43.2326 341.456 44.3426C340.955 45.4726 340.153 46.4826 339.298 47.4726C338.86 47.9426 338.485 48.5026 337.87 48.9426C337.276 49.3626 336.557 49.6226 335.817 49.7226C334.347 49.9326 332.679 49.5326 331.585 48.3726L332.064 48.2326C331.793 50.7226 330.376 53.2526 328.072 54.8126C326.853 55.7026 325.331 56.2626 323.82 56.2526C322.308 56.2726 320.901 55.8826 319.577 55.4626L319.921 55.3026C319.254 56.8726 318.212 58.2226 316.93 59.2326C315.669 60.2426 313.97 60.8526 312.417 60.5226C309.321 59.9626 307.226 57.5526 306.757 55.2526L307.059 55.3826C305.548 56.2126 303.911 56.3326 302.598 56.1126C301.264 55.9126 300.201 55.3726 299.44 54.8426C298.679 54.3026 298.22 53.7326 297.949 53.3426C297.699 52.9326 297.585 52.7126 297.605 52.7026C297.668 52.6526 298.064 53.6426 299.575 54.6626C300.326 55.1526 301.368 55.6326 302.65 55.8026C303.922 55.9826 305.475 55.8426 306.861 55.0426L307.101 54.9026L307.163 55.1626C307.632 57.3126 309.655 59.5626 312.521 60.0426C313.928 60.3226 315.419 59.7826 316.617 58.8326C317.816 57.8826 318.816 56.5826 319.431 55.1026L319.525 54.8726L319.775 54.9526C321.078 55.3626 322.433 55.7326 323.83 55.7126C325.227 55.7126 326.592 55.2126 327.749 54.3726C329.928 52.8926 331.251 50.5326 331.522 48.1626L331.585 47.5726L332.002 48.0226C332.929 49.0226 334.42 49.4026 335.744 49.2126C336.4 49.1226 337.047 48.9026 337.557 48.5326C338.058 48.1826 338.454 47.6326 338.902 47.1526C339.757 46.1826 340.538 45.2126 341.007 44.1626C341.508 43.1226 341.581 41.9926 341.216 41.0326L341.101 40.7326L341.424 40.7426C343.415 40.8226 345.197 40.1726 346.511 39.3026C347.845 38.4426 348.731 37.3726 349.315 36.4426C350.461 34.5326 350.388 33.2126 350.482 33.2326Z" fill="#455A64"/>
<path d="M256.695 144.113C256.695 144.113 207.685 160.673 193.51 167.513C182.43 172.853 175.415 192.243 192.457 200.323C205.163 206.353 273.966 194.833 273.966 194.833L256.695 144.113Z" fill="#FFBF9D"/>
<path d="M406.319 308.743L281.794 304.223L277.281 344.893L272.288 426.473L335.858 426.733C335.89 426.383 343.79 380.873 343.79 380.873L347.386 379.973L347.053 426.733H406.631C409.758 388.043 411.551 355.533 411.655 352.483C412.521 328.303 406.319 308.743 406.319 308.743Z" fill="#263238"/>
<path d="M339.309 355.523C339.288 355.583 339.955 355.913 341.195 356.443C342.446 356.953 344.291 357.723 346.761 358.063C347.991 358.223 349.388 358.233 350.837 357.923C352.275 357.613 353.807 356.963 355.016 355.783C356.225 354.603 356.965 352.993 357.414 351.343C357.862 349.673 358.081 347.943 358.372 346.183C359.477 339.133 360.144 332.703 360.499 328.043C360.676 325.713 360.78 323.823 360.822 322.523C360.864 321.213 360.853 320.493 360.791 320.493C360.728 320.493 360.613 321.203 360.457 322.503C360.29 323.993 360.082 325.823 359.842 327.993C359.321 332.633 358.55 339.023 357.445 346.053C356.882 349.533 356.548 353.063 354.401 355.213C352.244 357.323 349.138 357.663 346.844 357.433C344.478 357.193 342.623 356.523 341.331 356.123C340.049 355.693 339.329 355.463 339.309 355.523Z" fill="#455A64"/>
<path d="M351.18 322.103C351.191 322.063 350.889 321.893 350.263 321.883C349.648 321.863 348.721 322.083 347.824 322.743C346.969 323.403 346.073 324.563 346.104 326.103C346.104 327.663 347.428 329.133 349.106 329.633C350.763 330.183 352.744 329.743 353.703 328.483C354.672 327.263 354.672 325.823 354.38 324.803C354.068 323.753 353.453 323.053 352.942 322.723C352.431 322.373 352.077 322.343 352.066 322.383C351.952 322.503 353.348 323.043 353.734 324.953C353.911 325.853 353.807 327.063 353.025 327.973C352.275 328.893 350.763 329.223 349.398 328.783C348.022 328.353 347.011 327.243 346.969 326.063C346.896 324.893 347.564 323.853 348.262 323.233C349.742 321.913 351.201 322.273 351.18 322.103Z" fill="#455A64"/>
<path d="M281.794 342.443C281.794 342.503 282.325 342.563 283.315 342.603C284.295 342.663 285.723 342.633 287.474 342.483C290.976 342.193 295.792 341.173 300.67 338.973C305.548 336.753 309.425 333.823 311.885 331.423C313.115 330.223 314.053 329.193 314.627 328.423C315.21 327.663 315.512 327.233 315.46 327.193C315.335 327.093 313.98 328.713 311.427 330.963C308.894 333.213 305.037 335.993 300.274 338.163C295.5 340.313 290.82 341.403 287.391 341.853C283.951 342.313 281.794 342.283 281.794 342.443Z" fill="#455A64"/>
<path d="M408.831 302.113C406.392 296.773 406.84 296.283 406.84 296.283L399.919 238.153L393.269 181.603L387.88 139.753L356.726 133.353C356.726 133.353 353.14 142.883 338.079 143.173C320.735 143.503 310.791 128.623 310.791 128.623L260.979 138.883L279.709 262.143L281.95 295.343C281.95 295.343 278.229 300.713 278.229 306.483C278.229 312.243 277.989 316.083 277.989 316.083C324.226 328.273 370.109 338.823 412.322 327.023C412.322 327.033 411.27 307.443 408.831 302.113Z" fill="#455A64"/>
<path d="M376.509 137.573C376.509 137.573 394.468 139.493 400.836 145.983C407.205 152.473 427.571 184.573 427.571 184.573L397.991 223.393L384.284 205.453L376.509 137.573Z" fill="#455A64"/>
<path d="M390.194 157.663C390.444 157.643 393.269 178.973 396.511 205.313C399.752 231.663 402.181 253.033 401.931 253.053C401.68 253.073 398.856 231.743 395.614 205.393C392.373 179.063 389.944 157.683 390.194 157.663Z" fill="#263238"/>
<path d="M260.979 138.893L221.089 155.873L235.525 194.603L273.966 200.453L260.979 138.893Z" fill="#455A64"/>
<path d="M266.461 164.563C266.722 164.533 268.629 179.643 270.714 198.313C272.799 216.983 274.268 232.133 273.997 232.163C273.737 232.193 271.829 217.083 269.745 198.413C267.67 179.743 266.201 164.593 266.461 164.563Z" fill="#263238"/>
<g opacity="0.3">
<path d="M276.301 360.963C297.96 353.493 309.957 338.773 319.64 323.163C329.323 307.553 330.709 285.573 324.508 268.403C324.508 268.403 279.761 309.933 279.438 310.853C279.115 311.773 276.301 360.963 276.301 360.963Z" fill="black"/>
</g>
<g opacity="0.3">
<path d="M337.214 142.643C336.682 146.863 339.131 150.923 342.144 154.043C345.156 157.153 348.804 159.693 351.545 163.033C354.683 166.833 356.475 171.473 358.216 176.023C361.864 185.523 365.502 195.033 369.15 204.533C372.287 212.713 375.466 220.983 380.449 228.283C385.42 235.583 392.435 241.933 401.086 244.603L394.52 191.063L359.863 137.583L337.214 142.643Z" fill="black"/>
</g>
<path d="M373.121 143.103C373.121 142.433 373.673 117.633 371.943 114.933C370.213 112.243 368.827 109.713 368.472 107.193C368.472 107.193 369.421 105.723 367.69 104.793C365.971 103.873 363.24 106.123 363.177 110.103C363.115 114.083 363.594 120.893 363.594 120.893C363.594 120.893 344.52 110.513 339.298 110.223C334.066 109.933 326.227 109.013 325.81 111.433C325.393 113.853 325.748 114.433 328.479 115.353C331.21 116.273 335.546 116.913 339.829 118.293C344.103 119.673 346.063 120.623 346.063 120.623C346.063 120.623 336.317 117.873 334.18 120.623C332.043 123.373 332.335 125.853 333.701 127.183C333.701 127.183 330.793 128.333 331.084 131.393C331.376 134.453 332.804 135.203 332.804 135.203C332.804 135.203 329.948 137.283 331.324 139.933C332.69 142.583 335.9 140.913 338.933 143.913C341.966 146.913 349.513 153.953 352.421 155.513C355.329 157.073 361.989 157.703 361.989 157.703L373.121 143.103Z" fill="#FFBF9D"/>
<path d="M373.121 143.103C373.131 143.103 373.069 143.193 372.954 143.353C372.819 143.533 372.642 143.773 372.412 144.093C371.912 144.753 371.203 145.713 370.276 146.953C368.379 149.473 365.616 153.133 362.114 157.773L362.062 157.833L361.979 157.823C360.665 157.693 359.29 157.503 357.862 157.243C356.434 156.983 354.954 156.663 353.473 156.133C352.723 155.873 352.004 155.483 351.347 155.023C350.67 154.573 350.034 154.073 349.377 153.563C348.085 152.533 346.782 151.423 345.468 150.253C344.155 149.093 342.821 147.873 341.466 146.603C340.799 145.963 340.111 145.313 339.423 144.663C338.746 143.983 338.079 143.333 337.224 142.883C336.39 142.413 335.431 142.193 334.441 141.983C333.482 141.773 332.315 141.553 331.595 140.683C330.887 139.873 330.584 138.723 330.855 137.663C331.137 136.603 331.825 135.723 332.69 135.023L332.721 135.383C331.971 134.883 331.595 134.153 331.303 133.403C331.032 132.643 330.887 131.853 330.855 131.023C330.824 130.183 331.085 129.333 331.585 128.613C332.096 127.903 332.784 127.343 333.617 126.963L333.544 127.333C332.325 126.163 332.137 124.293 332.7 122.803C332.961 122.043 333.367 121.323 333.857 120.673C334.076 120.343 334.43 119.993 334.826 119.803C335.212 119.593 335.629 119.463 336.046 119.363C337.735 119.023 339.434 119.163 341.122 119.373C342.811 119.603 344.478 119.943 346.146 120.393L345.969 120.833C343.467 119.733 340.757 118.793 337.995 117.993C335.223 117.203 332.325 116.683 329.438 115.893C328.406 115.583 327.374 115.293 326.415 114.703C325.936 114.403 325.539 113.873 325.467 113.303C325.383 112.743 325.446 112.223 325.519 111.713C325.56 111.483 325.581 111.163 325.758 110.893C325.925 110.633 326.165 110.443 326.415 110.293C326.915 110.013 327.447 109.883 327.979 109.783C329.042 109.593 330.094 109.563 331.137 109.553C333.232 109.553 335.285 109.713 337.318 109.843C338.339 109.923 339.329 109.933 340.372 110.123C340.872 110.233 341.362 110.373 341.852 110.503L343.28 110.983C347.032 112.353 350.545 114.013 353.932 115.653C357.32 117.313 360.572 118.993 363.699 120.683L363.365 120.883C363.136 116.953 362.886 113.193 362.99 109.553C363.136 107.743 363.855 105.873 365.429 104.823C365.825 104.573 366.283 104.403 366.773 104.383C367.263 104.353 367.753 104.553 368.118 104.823C368.493 105.093 368.806 105.493 368.879 105.953C368.962 106.413 368.848 106.863 368.618 107.263L368.65 107.143C369.056 109.913 370.505 112.303 371.849 114.473C372.016 114.733 372.214 115.033 372.308 115.353C372.423 115.663 372.475 115.973 372.548 116.283C372.662 116.903 372.746 117.513 372.808 118.113C372.944 119.313 373.017 120.483 373.079 121.603C373.309 126.113 373.298 130.003 373.298 133.183C373.288 136.363 373.246 138.843 373.204 140.523C373.184 141.353 373.163 141.983 373.152 142.433C373.142 142.883 373.121 143.103 373.121 143.103C373.121 143.103 373.1 142.883 373.1 142.453C373.1 142.003 373.1 141.363 373.1 140.543C373.1 138.843 373.1 136.373 373.09 133.213C373.058 130.033 373.027 126.143 372.777 121.653C372.704 120.533 372.621 119.373 372.485 118.183C372.423 117.583 372.329 116.983 372.214 116.383C372.079 115.763 371.954 115.213 371.558 114.683C370.192 112.503 368.722 110.103 368.274 107.233L368.264 107.173L368.295 107.113C368.472 106.803 368.566 106.413 368.504 106.063C368.441 105.703 368.201 105.393 367.878 105.163C367.242 104.653 366.346 104.733 365.648 105.183C364.23 106.123 363.532 107.893 363.407 109.623C363.313 113.193 363.563 116.983 363.813 120.893L363.834 121.283L363.48 121.093C360.363 119.413 357.111 117.743 353.724 116.093C350.336 114.453 346.823 112.803 343.113 111.453L341.706 110.983C341.226 110.863 340.747 110.723 340.267 110.613C339.329 110.433 338.287 110.413 337.276 110.343C335.243 110.213 333.19 110.063 331.126 110.053C330.094 110.063 329.062 110.093 328.051 110.273C327.093 110.463 325.967 110.793 325.998 111.803C325.925 112.293 325.873 112.793 325.946 113.243C326.019 113.703 326.28 114.063 326.686 114.323C327.52 114.843 328.573 115.143 329.573 115.443C332.419 116.213 335.327 116.743 338.131 117.543C340.924 118.363 343.613 119.283 346.177 120.423L346 120.863C344.364 120.423 342.706 120.083 341.049 119.853C339.402 119.643 337.714 119.513 336.15 119.833C335.379 120.013 334.649 120.313 334.253 120.953C333.795 121.573 333.409 122.253 333.159 122.963C332.638 124.363 332.815 126.013 333.878 127.033L334.118 127.263L333.805 127.403C333.086 127.723 332.419 128.253 331.971 128.883C331.522 129.523 331.293 130.273 331.314 131.033C331.335 131.793 331.481 132.573 331.731 133.273C331.981 133.963 332.387 134.663 332.929 135.023L333.19 135.193L332.95 135.383C332.169 136.003 331.512 136.853 331.272 137.773C331.032 138.693 331.303 139.713 331.918 140.423C332.523 141.163 333.555 141.383 334.524 141.593C335.514 141.803 336.536 142.043 337.422 142.543C338.318 143.013 339.048 143.733 339.705 144.393C340.392 145.053 341.07 145.703 341.737 146.343C343.082 147.613 344.405 148.833 345.719 150.003C347.032 151.173 348.314 152.283 349.596 153.313C350.899 154.313 352.139 155.353 353.588 155.853C355.037 156.383 356.507 156.713 357.914 156.973C359.331 157.233 360.697 157.433 362 157.573L361.874 157.623C365.418 153.023 368.212 149.403 370.13 146.903C371.089 145.673 371.818 144.723 372.329 144.073C372.579 143.763 372.767 143.523 372.902 143.353C373.048 143.183 373.121 143.103 373.121 143.103Z" fill="#FF9A6C"/>
<path d="M434.93 201.003C433.023 197.513 428.718 190.233 426.644 185.783L413.01 190.533C413.01 190.533 374.393 140.493 373.163 140.493C371.933 140.493 355.162 155.413 355.162 155.413C355.902 156.123 390.673 232.573 403.984 240.853C417.305 249.133 427.227 254.393 434.378 242.563C441.528 230.733 443.31 216.383 434.93 201.003Z" fill="#FFBF9D"/>
<path d="M430.469 213.003C430.438 213.023 430.208 212.673 429.833 212.033C429.458 211.393 428.895 210.473 428.186 209.353C426.769 207.103 424.663 204.073 422.12 200.893C419.566 197.713 417.096 194.953 415.293 192.963C414.449 192.023 413.73 191.233 413.156 190.603C412.656 190.043 412.395 189.723 412.416 189.703C412.437 189.683 412.75 189.953 413.302 190.483C413.844 191.003 414.615 191.773 415.554 192.743C417.419 194.673 419.952 197.403 422.516 200.603C425.08 203.803 427.144 206.873 428.489 209.183C429.166 210.333 429.677 211.283 430.01 211.953C430.334 212.613 430.5 212.983 430.469 213.003Z" fill="#FF9A6C"/>
<path d="M351.92 101.563C351.577 101.813 350.138 100.383 347.855 99.6228C345.594 98.8028 343.54 99.0028 343.436 98.6028C343.394 98.4228 343.884 98.1028 344.791 97.9428C345.698 97.7728 347.022 97.8128 348.356 98.2828C349.69 98.7528 350.732 99.5428 351.316 100.223C351.91 100.903 352.077 101.453 351.92 101.563Z" fill="#263238"/>
<path d="M386.775 301.773C386.786 301.783 386.619 301.883 386.296 302.043C385.973 302.193 385.504 302.463 384.868 302.703C383.596 303.223 381.689 303.823 379.239 304.153C376.79 304.483 373.83 304.513 370.588 304.113C367.347 303.723 363.855 302.933 360.259 301.903C353.077 299.793 346.73 297.493 342.175 295.703C339.903 294.813 338.078 294.043 336.828 293.503C336.244 293.243 335.775 293.033 335.389 292.863C335.066 292.713 334.899 292.623 334.899 292.613C334.91 292.593 335.087 292.653 335.421 292.783C335.806 292.933 336.296 293.113 336.89 293.343C338.224 293.853 340.059 294.553 342.289 295.403C346.865 297.103 353.223 299.363 360.384 301.453C363.959 302.483 367.43 303.273 370.63 303.693C373.83 304.113 376.759 304.113 379.177 303.833C381.595 303.553 383.502 303.003 384.785 302.543C386.077 302.043 386.754 301.733 386.775 301.773Z" fill="#263238"/>
<path d="M292.467 206.363C275.06 195.113 254.36 191.093 240.789 191.083C228.083 191.073 209.374 192.983 192.436 202.133C181.919 207.813 173.529 215.583 167.483 225.223C160.333 236.643 156.456 250.763 155.966 267.213C155.893 269.683 156.841 272.013 158.634 273.793C160.437 275.573 162.866 276.563 165.451 276.563L198.774 276.583C203.474 276.583 207.519 273.223 208.186 268.763C209.666 258.733 215.888 241.863 240.82 241.463C259.832 241.173 267.65 254.363 270.13 260.053C274.174 269.313 273.143 280.293 267.358 289.413C258.477 303.433 242.165 305.573 233.232 305.593C222.955 305.623 214.596 313.623 214.585 323.423L214.565 357.823C214.565 362.843 218.817 366.933 224.06 366.943L256.528 366.963C261.76 366.963 266.024 362.883 266.034 357.853V350.623C266.034 350.453 266.149 350.303 266.326 350.243C273.685 347.773 287.943 341.803 300.795 329.553C317.201 313.923 325.529 293.753 325.54 269.583C325.56 235.013 307.57 216.113 292.467 206.363Z" fill="#4680FF"/>
<path d="M241.904 375.623H239.059C225.478 375.613 214.429 386.203 214.419 399.233C214.408 412.263 225.446 422.863 239.028 422.873H241.873C255.455 422.883 266.503 412.293 266.513 399.263C266.524 386.243 255.486 375.633 241.904 375.623Z" fill="#4680FF"/>
<g opacity="0.3">
<path d="M324.289 247.503C323.851 243.983 322.892 240.613 321.548 237.373C315.044 221.813 299.795 211.203 282.43 209.313L198.638 200.173C207.748 209.103 219.641 210.883 232.253 214.023C244.865 217.163 258.436 221.863 271.183 224.463C275.269 225.293 279.501 226.343 282.68 228.943C285.786 231.483 287.516 235.193 289.153 238.783C291.571 244.093 293.999 249.413 296.417 254.723C299.18 260.793 302.859 267.643 310.311 268.033C313.313 268.193 316.263 267.113 318.546 265.233C323.934 260.783 325.071 253.873 324.289 247.503Z" fill="black"/>
</g>
<path d="M323.1 225.973C322.454 224.883 309.717 209.943 303.39 204.153C299.305 200.413 293.144 197.833 289.277 196.473C289.277 196.473 225.519 174.383 221.1 172.233L192.468 200.343C202.432 203.003 270.12 218.633 286.818 222.153C289.736 225.423 292.675 228.103 292.675 228.103L297.533 239.043C297.533 239.043 298.095 243.023 297.741 247.293C297.387 251.563 301.003 249.903 301.003 249.903C301.003 249.903 300.837 252.553 301.066 256.383C301.066 256.423 301.066 256.463 301.076 256.493C301.316 259.353 305.6 259.703 306.507 256.973L309.801 247.113C309.801 247.113 309.373 256.093 309.196 261.083C309.165 261.993 309.332 262.733 309.623 263.343C310.885 265.993 314.991 265.493 315.69 262.663L319.546 247.063L318.295 237.503L321.527 246.233C321.527 246.233 322.423 250.903 322.235 257.453C322.162 260.073 323.09 261.193 324.216 261.583C326.113 262.243 328.114 260.793 328.281 258.863L329.511 244.403C329.49 244.403 323.747 227.063 323.1 225.973Z" fill="#FFBF9D"/>
<path d="M216.983 171.123C217.014 171.013 218.817 171.283 221.673 172.043C224.529 172.793 228.396 174.073 232.576 175.663C236.755 177.263 240.497 178.793 243.207 179.903C245.917 181.013 247.585 181.703 247.533 181.833C247.491 181.953 245.73 181.473 242.957 180.513C240.174 179.563 236.391 178.123 232.221 176.523C228.052 174.933 224.258 173.573 221.475 172.663C218.692 171.763 216.941 171.263 216.983 171.123Z" fill="#FF9A6C"/>
</svg>
